<?xml version="1.0" encoding="UTF-8" standalone="no"?>
<!-- Created with Inkscape (http://www.inkscape.org/) -->

<svg
   version="1.1"
   id="svg2"
   width="380"
   height="254"
   viewBox="0 0 380 254"
   sodipodi:docname="oracle-one-vector-part.svg"
   inkscape:version="1.2.1 (9c6d41e410, 2022-07-14)"
   xmlns:inkscape="http://www.inkscape.org/namespaces/inkscape"
   xmlns:sodipodi="http://sodipodi.sourceforge.net/DTD/sodipodi-0.dtd"
   xmlns="http://www.w3.org/2000/svg"
   xmlns:svg="http://www.w3.org/2000/svg">
  <defs
     id="defs6" />
  <sodipodi:namedview
     id="namedview4"
     pagecolor="#ffffff"
     bordercolor="#999999"
     borderopacity="1"
     inkscape:showpageshadow="0"
     inkscape:pageopacity="0"
     inkscape:pagecheckerboard="0"
     inkscape:deskcolor="#d1d1d1"
     showgrid="false"
     inkscape:zoom="3.2519685"
     inkscape:cx="190.19249"
     inkscape:cy="102.55327"
     inkscape:window-width="1920"
     inkscape:window-height="1013"
     inkscape:window-x="-9"
     inkscape:window-y="-9"
     inkscape:window-maximized="1"
     inkscape:current-layer="g8" />
  <g
     inkscape:groupmode="layer"
     inkscape:label="Image"
     id="g8">
    <path
       style="fill:#000000"
       d="m 119.82201,158.03706 -7.57629,-0.33769 1.58719,-9.61411 c 1.29019,-7.81506 1.95941,-9.75944 3.5763,-10.39078 2.45309,-0.95784 45.80901,-1.15665 58.33548,-0.2675 l 9.15362,0.64975 v 7.3113 c 0,8.70837 -1.46748,10.68035 -9.17863,12.3341 -4.50899,0.967 -37.14303,1.15087 -55.89767,0.31493 z m 107.5763,-26.14986 c -8.28777,-3.82505 -11.76288,-10.49697 -11.78523,-22.62665 -0.0296,-16.075726 7.45834,-24.522596 21.68445,-24.461346 13.42959,0.0578 20.92525,8.82613 20.92525,24.478036 0,12.05244 -3.5159,18.7753 -11.82447,22.60996 -5.20969,2.40443 -13.79031,2.40443 -19,0 z m 16.98632,-7.27786 c 3.84374,-3.02348 5.51368,-7.66716 5.51368,-15.3321 0,-11.684866 -4.31981,-17.499996 -13,-17.499996 -8.87087,0 -13,5.55845 -13,17.499996 0,8.35916 1.34608,12.05386 5.61488,15.4117 3.68611,2.8995 11.13482,2.85963 14.87144,-0.0796 z m -100.15367,6.25019 c -5.59204,-0.32026 -10.47789,-0.89314 -10.85744,-1.27306 -0.37955,-0.37993 -0.36401,-3.93779 0.0345,-7.90636 0.58991,-5.87404 1.1903,-7.64715 3.22922,-9.53676 3.21423,-2.97885 4.5698,-3.16941 30.26103,-4.25401 15.95604,-0.67361 21.68945,-0.61169 22.23469,0.24012 1.48637,2.32211 0.75269,14.07885 -1.13845,18.24297 -1.82657,4.02194 -1.97189,4.1069 -8.12473,4.75 -6.92574,0.72388 -20.10625,0.62665 -35.63886,-0.2629 z m 8.58977,-30.22725 c -1.07818,-2.014596 -0.73708,-9.503686 0.77907,-17.105036 l 0.54851,-2.75 h 15.675 c 10.85833,0 16.04374,0.36874 16.875,1.2 0.75843,0.75843 1.2,4.56623 1.2,10.34803 v 9.148036 l -10.65556,0.65196 c -19.28421,1.17992 -23.11692,0.94561 -24.42202,-1.49299 z"
       id="path170" />
  </g>
</svg>
