<svg width="250" height="33" viewBox="0 0 250 33" fill="none" xmlns="http://www.w3.org/2000/svg">
  <g clip-path="url(#clip0_225_249)">
    <path fill-rule="evenodd" clip-rule="evenodd"
      d="M201.389 0.001H198.206V0C198.046 0 197.938 0.131 197.912 0.287V31.447C197.914 31.608 198.045 31.737 198.206 31.737H201.389C201.466 31.737 201.54 31.7066 201.595 31.6523C201.651 31.598 201.682 31.5243 201.683 31.447V0.288C201.681 0.211338 201.649 0.138449 201.594 0.084978C201.539 0.0315072 201.466 0.0017164 201.389 0.002V0.001ZM242.379 8.293C245.001 8.293 246.926 8.791 248.156 9.811C249.385 10.807 250 12.087 250 13.604V26.529C250 27.052 249.894 27.628 249.706 28.255C249.52 28.885 249.145 29.46 248.557 29.982C247.996 30.507 247.221 30.952 246.231 31.292C245.243 31.632 243.958 31.814 242.381 31.814C240.805 31.814 239.52 31.632 238.531 31.292C237.543 30.952 236.767 30.507 236.206 29.982C235.685 29.5117 235.29 28.9178 235.059 28.255C234.87 27.628 234.762 27.052 234.762 26.529V24.463C234.762 23.363 235.057 22.343 235.645 21.453C236.234 20.538 237.063 19.91 238.132 19.517C238.391 19.429 238.67 19.34 238.967 19.245H238.969C239.56 19.0582 240.148 18.8615 240.732 18.655C241.148 18.508 241.552 18.367 241.957 18.235C242.599 18.025 243.159 17.815 243.641 17.631C243.931 17.515 244.225 17.411 244.523 17.319L245.005 17.083C245.191 16.979 245.379 16.821 245.566 16.613C245.757 16.4 245.919 16.163 246.047 15.907C246.19 15.623 246.263 15.309 246.261 14.992V14.154C246.263 13.8472 246.199 13.5435 246.072 13.264C245.966 12.949 245.753 12.661 245.458 12.401C245.165 12.139 244.765 11.93 244.282 11.771C243.801 11.616 243.16 11.536 242.437 11.536C240.939 11.536 239.951 11.826 239.415 12.426C238.956 12.9613 238.683 13.6319 238.64 14.336C238.64 14.493 238.508 14.598 238.348 14.598H235.104C235.027 14.5978 234.954 14.5676 234.9 14.514C234.845 14.4603 234.814 14.3875 234.812 14.311V13.551C234.812 12.821 234.945 12.14 235.24 11.485C235.534 10.832 235.988 10.282 236.602 9.812C237.219 9.341 238.02 8.948 238.984 8.687C239.892 8.422 241.041 8.293 242.379 8.293ZM187.107 8.293C189.729 8.293 191.654 8.791 192.883 9.811C194.114 10.807 194.729 12.087 194.729 13.603V26.53C194.729 27.053 194.623 27.629 194.436 28.256C194.247 28.886 193.874 29.461 193.286 29.982C192.725 30.508 191.949 30.952 190.96 31.292C189.97 31.632 188.687 31.815 187.109 31.815C185.533 31.815 184.247 31.633 183.259 31.292C182.271 30.952 181.494 30.508 180.933 29.982C180.411 29.512 180.016 28.9185 179.783 28.256C179.594 27.63 179.487 27.055 179.487 26.532V24.466C179.487 23.366 179.781 22.346 180.37 21.454C180.959 20.54 181.787 19.913 182.857 19.519C183.115 19.431 183.392 19.343 183.688 19.249H183.689C184.005 19.148 184.343 19.04 184.701 18.919C184.972 18.826 185.234 18.735 185.491 18.644C185.895 18.503 186.287 18.365 186.68 18.238C187.246 18.0509 187.808 17.8495 188.364 17.634C188.654 17.518 188.949 17.414 189.247 17.321L189.728 17.085C189.917 16.981 190.103 16.824 190.291 16.615C190.481 16.4011 190.642 16.1638 190.772 15.909C190.915 15.625 190.988 15.312 190.986 14.994V14.156C190.988 13.8492 190.924 13.5455 190.797 13.266C190.692 12.951 190.477 12.664 190.183 12.403C189.89 12.141 189.488 11.932 189.007 11.773C188.526 11.618 187.885 11.539 187.162 11.539C185.664 11.539 184.675 11.829 184.14 12.428C183.68 12.9631 183.409 13.6339 183.366 14.338C183.366 14.495 183.233 14.6 183.071 14.6L179.81 14.653C179.733 14.6533 179.658 14.623 179.603 14.5687C179.548 14.5144 179.516 14.4405 179.515 14.363V13.607C179.515 12.873 179.65 12.192 179.944 11.539C180.239 10.883 180.694 10.335 181.308 9.863C181.923 9.393 182.726 9.001 183.688 8.739C184.624 8.424 185.774 8.294 187.11 8.294H187.107V8.293ZM190.959 19.883L190.957 19.893V19.883H190.959ZM190.957 19.893V25.223C190.957 26.268 190.69 27.078 190.157 27.654C189.62 28.23 188.604 28.517 187.106 28.517C185.638 28.517 184.647 28.257 184.112 27.706C183.577 27.183 183.309 26.346 183.309 25.246C183.309 24.697 183.444 24.226 183.659 23.861C183.867 23.531 184.119 23.233 184.407 22.971C184.718 22.7269 185.059 22.5245 185.422 22.369C185.746 22.247 186.08 22.136 186.427 22.021C186.597 21.964 186.771 21.907 186.948 21.846C187.213 21.765 187.497 21.663 187.803 21.556V21.555H187.804C187.992 21.488 188.188 21.418 188.392 21.349C188.728 21.228 189.052 21.119 189.365 21.012L189.837 20.852C190.051 20.773 190.263 20.695 190.505 20.539C190.624 20.4718 190.726 20.3788 190.805 20.2669C190.883 20.1549 190.935 20.0268 190.957 19.892V19.893ZM246.227 19.893L246.229 19.883H246.227V19.893ZM246.227 19.893C246.205 20.0276 246.153 20.1555 246.074 20.2673C245.996 20.3791 245.894 20.4719 245.775 20.539C245.536 20.695 245.322 20.773 245.109 20.851H245.107C244.939 20.909 244.768 20.968 244.592 21.027C244.293 21.129 243.983 21.234 243.662 21.349C243.458 21.419 243.261 21.489 243.072 21.555H243.071C242.766 21.664 242.482 21.765 242.218 21.846C242.045 21.906 241.876 21.961 241.709 22.016C241.358 22.133 241.019 22.246 240.692 22.369C240.328 22.5244 239.987 22.7268 239.676 22.971C239.388 23.2328 239.137 23.5321 238.929 23.861C238.715 24.226 238.581 24.697 238.581 25.247C238.581 26.347 238.846 27.183 239.381 27.706C239.916 28.256 240.907 28.517 242.377 28.517C243.877 28.517 244.891 28.23 245.427 27.654C245.96 27.078 246.227 26.268 246.227 25.223V19.893ZM233.048 8.397H230.908V8.396C229.117 8.396 227.727 8.605 226.71 9.026C225.694 9.444 224.945 9.966 224.437 10.543C223.929 11.145 223.607 11.72 223.5 12.321C223.367 12.924 223.314 13.395 223.314 13.707V31.291C223.317 31.451 223.448 31.578 223.607 31.578H226.814C226.891 31.5788 226.966 31.5491 227.021 31.4954C227.077 31.4417 227.109 31.3683 227.111 31.291V14.468C227.11 14.177 227.146 13.887 227.218 13.605C227.297 13.316 227.458 13.03 227.726 12.741C227.994 12.453 228.394 12.218 228.876 12.01C229.384 11.8 230.026 11.695 230.828 11.695H232.325C232.433 11.695 232.567 11.617 232.593 11.485L233.315 8.763C233.327 8.72104 233.33 8.67675 233.323 8.6336C233.315 8.59046 233.298 8.54962 233.272 8.51428C233.246 8.47894 233.213 8.45005 233.174 8.42988C233.135 8.40971 233.092 8.3988 233.048 8.398V8.397ZM220.105 25.953V26.738C220.105 27.078 220.054 27.548 219.92 28.151C219.812 28.726 219.491 29.328 218.983 29.902C218.475 30.479 217.726 31.002 216.71 31.42C215.694 31.84 214.303 32.05 212.512 32.05C210.722 32.05 209.331 31.84 208.315 31.42C207.299 31.002 206.55 30.506 206.042 29.904C205.534 29.329 205.212 28.727 205.105 28.127L205.096 28.074C204.995 27.496 204.92 27.069 204.92 26.739V9.13C204.92 8.973 205.054 8.84 205.214 8.84H208.395C208.557 8.84 208.69 8.973 208.69 9.13V25.613C208.69 26.162 208.77 26.555 208.851 26.869C208.932 27.184 209.093 27.496 209.333 27.759C209.573 28.045 209.948 28.281 210.455 28.464C210.937 28.648 211.606 28.754 212.434 28.754C213.292 28.754 213.985 28.648 214.494 28.464C215.002 28.281 215.377 28.045 215.644 27.784C215.909 27.523 216.098 27.235 216.177 26.92L216.214 26.782C216.288 26.517 216.366 26.232 216.366 25.585V9.106C216.366 8.95 216.498 8.819 216.659 8.819H219.84C219.999 8.819 220.133 8.949 220.133 9.109V25.956H220.107L220.105 25.954V25.953ZM60.877 23.819H70.195L65.273 15.898L56.236 30.216L52.118 30.22L63.118 13.024C63.585 12.325 64.39 11.904 65.268 11.904C66.132 11.904 66.926 12.313 67.395 12.994L78.433 30.22L74.313 30.216L72.38 27.016H62.937L60.877 23.819ZM103.629 27.019V12.085H100.134V28.48C100.134 28.934 100.319 29.368 100.643 29.692C100.986 30.029 101.438 30.218 101.924 30.218H117.848L119.903 27.021H103.629V27.019ZM45.855 24.346C47.482 24.3468 49.0428 23.7014 50.194 22.5516C51.3452 21.4019 51.9927 19.842 51.994 18.215C51.9927 16.5878 51.3451 15.0278 50.1936 13.878C49.0422 12.7283 47.4812 12.0829 45.854 12.084H30.573V30.217H34.063V15.28H45.615C46.0051 15.2728 46.3926 15.3434 46.7551 15.4877C47.1175 15.632 47.4476 15.8471 47.726 16.1204C48.0044 16.3937 48.2255 16.7197 48.3765 17.0794C48.5274 17.4392 48.6052 17.8254 48.6052 18.2155C48.6052 18.6056 48.5274 18.9918 48.3765 19.3516C48.2255 19.7113 48.0044 20.0373 47.726 20.3106C47.4476 20.5839 47.1175 20.799 46.7551 20.9433C46.3926 21.0876 46.0051 21.1582 45.615 21.151L35.774 21.148L46.196 30.217H51.27L44.257 24.343L45.856 24.346H45.855ZM9.08 30.216C4.067 30.216 0 26.16 0 21.151C0 16.143 4.067 12.084 9.08 12.084H19.636C24.65 12.084 28.716 16.143 28.716 21.151C28.716 26.161 24.65 30.22 19.636 30.22L9.08 30.217V30.216ZM19.401 27.021C20.1725 27.0219 20.9367 26.8708 21.6498 26.5762C22.3629 26.2817 23.011 25.8495 23.5569 25.3043C24.1029 24.7592 24.5361 24.1118 24.8318 23.3991C25.1274 22.6865 25.2797 21.9225 25.28 21.151C25.28 17.908 22.65 15.281 19.401 15.281L9.315 15.28C8.5434 15.2793 7.77923 15.4307 7.06612 15.7254C6.35302 16.0201 5.70495 16.4524 5.15893 16.9976C4.61291 17.5427 4.17963 18.1902 3.88383 18.9028C3.58804 19.6155 3.43552 20.3794 3.435 21.151C3.43552 21.9226 3.58805 22.6864 3.88385 23.399C4.17966 24.1116 4.61296 24.759 5.15899 25.3041C5.70502 25.8492 6.3531 26.2814 7.0662 26.576C7.7793 26.8706 8.54345 27.0218 9.315 27.021H19.401ZM85.718 30.216C80.706 30.216 76.637 26.16 76.637 21.151C76.637 16.143 80.706 12.084 85.718 12.084H98.262L96.207 15.281L85.954 15.28C85.1823 15.2792 84.4179 15.4305 83.7047 15.7251C82.9914 16.0197 82.3431 16.452 81.7969 16.9972C81.2507 17.5423 80.8173 18.1898 80.5213 18.9025C80.2253 19.6152 80.0727 20.3793 80.072 21.151C80.0727 21.9227 80.2253 22.6867 80.5213 23.3993C80.8173 24.112 81.2508 24.7594 81.797 25.3045C82.3432 25.8496 82.9915 26.2818 83.7047 26.5763C84.418 26.8708 85.1823 27.0219 85.954 27.021H98.544L96.494 30.216H85.718ZM128.437 27.021C127.159 27.0218 125.915 26.6057 124.895 25.8358C123.875 25.066 123.133 23.9843 122.783 22.755H137.71L139.766 19.559L122.779 19.557C123.128 18.3252 123.869 17.2409 124.89 16.469C125.911 15.697 127.157 15.2795 128.437 15.28H138.683L140.741 12.084H128.198C123.186 12.084 119.118 16.143 119.118 21.151C119.118 26.16 123.186 30.217 128.198 30.217H138.973L141.026 27.021H128.437Z"
      fill="#363C41" />
    <path d="M160.34 14.652V27.472M153.846 20.978H166.666" stroke="#363C41" stroke-width="2" />
  </g>
  <defs>
    <clipPath id="clip0_225_249">
      <rect width="250" height="33" fill="white" />
    </clipPath>
  </defs>
</svg>
  