<svg width="250" height="33" fill="none" xmlns="http://www.w3.org/2000/svg">
  <path fill-rule="evenodd" clip-rule="evenodd"
    d="M201.389.001h-3.183V0c-.16 0-.268.131-.294.287v31.16c.002.161.133.29.294.29h3.183a.294.294 0 0 0 .294-.29V.288a.293.293 0 0 0-.294-.286Zm40.99 8.292c2.622 0 4.547.498 5.777 1.518 1.229.996 1.844 2.276 1.844 3.793v12.925c0 .523-.106 1.099-.294 1.726-.186.63-.561 1.205-1.149 1.727-.561.525-1.336.97-2.326 1.31-.988.34-2.273.522-3.85.522-1.576 0-2.861-.182-3.85-.522-.988-.34-1.764-.785-2.325-1.31a4.182 4.182 0 0 1-1.147-1.727c-.189-.627-.297-1.203-.297-1.726v-2.066c0-1.1.295-2.12.883-3.01.589-.915 1.418-1.543 2.487-1.936.259-.088.538-.177.835-.272h.002a55.27 55.27 0 0 0 1.763-.59c.416-.147.82-.288 1.225-.42.642-.21 1.202-.42 1.684-.604.29-.116.584-.22.882-.312l.482-.236c.186-.104.374-.262.561-.47.191-.213.353-.45.481-.706.143-.284.216-.598.214-.915v-.838a2.12 2.12 0 0 0-.189-.89c-.106-.315-.319-.603-.614-.863-.293-.262-.693-.471-1.176-.63-.481-.155-1.122-.235-1.845-.235-1.498 0-2.486.29-3.022.89a3.239 3.239 0 0 0-.775 1.91c0 .157-.132.262-.292.262h-3.244a.293.293 0 0 1-.292-.287v-.76c0-.73.133-1.411.428-2.066.294-.653.748-1.203 1.362-1.673.617-.471 1.418-.864 2.382-1.125.908-.265 2.057-.394 3.395-.394Zm-55.272 0c2.622 0 4.547.498 5.776 1.518 1.231.996 1.846 2.276 1.846 3.792V26.53c0 .523-.106 1.099-.293 1.726-.189.63-.562 1.205-1.15 1.726-.561.526-1.337.97-2.326 1.31-.99.34-2.273.523-3.851.523-1.576 0-2.862-.182-3.85-.523-.988-.34-1.765-.784-2.326-1.31a4.194 4.194 0 0 1-1.15-1.726c-.189-.626-.296-1.201-.296-1.724v-2.066c0-1.1.294-2.12.883-3.012.589-.914 1.417-1.541 2.487-1.935.258-.088.535-.176.831-.27h.001c.316-.101.654-.209 1.012-.33.271-.093.533-.184.79-.275.404-.141.796-.279 1.189-.406a35.25 35.25 0 0 0 1.684-.604c.29-.116.585-.22.883-.313l.481-.236c.189-.104.375-.261.563-.47a3.36 3.36 0 0 0 .481-.706c.143-.284.216-.597.214-.915v-.838a2.12 2.12 0 0 0-.189-.89c-.105-.315-.32-.602-.614-.863-.293-.262-.695-.471-1.176-.63-.481-.155-1.122-.234-1.845-.234-1.498 0-2.487.29-3.022.889a3.231 3.231 0 0 0-.774 1.91c0 .157-.133.262-.295.262l-3.261.053a.294.294 0 0 1-.295-.29v-.756c0-.734.135-1.415.429-2.068.295-.656.75-1.204 1.364-1.676.615-.47 1.418-.862 2.38-1.124.936-.315 2.086-.445 3.422-.445h-.003Zm3.852 11.59-.002.01v-.01h.002Zm-.002.01v5.33c0 1.045-.267 1.855-.8 2.431-.537.576-1.553.863-3.051.863-1.468 0-2.459-.26-2.994-.811-.535-.523-.803-1.36-.803-2.46 0-.549.135-1.02.35-1.385.208-.33.46-.628.748-.89a4.524 4.524 0 0 1 1.015-.602c.324-.122.658-.233 1.005-.348.17-.057.344-.114.521-.175.265-.081.549-.183.855-.29v-.001h.001c.188-.067.384-.137.588-.206.336-.121.66-.23.973-.337l.472-.16c.214-.079.426-.157.668-.313a.913.913 0 0 0 .452-.647Zm55.27 0 .002-.01h-.002v.01Zm0 0a.913.913 0 0 1-.452.646c-.239.156-.453.234-.666.312h-.002c-.168.058-.339.117-.515.176-.299.102-.609.207-.93.322-.204.07-.401.14-.59.206h-.001c-.305.109-.589.21-.853.291-.173.06-.342.115-.509.17-.351.117-.69.23-1.017.353a4.523 4.523 0 0 0-1.016.602 4.332 4.332 0 0 0-.747.89c-.214.365-.348.836-.348 1.386 0 1.1.265 1.936.8 2.459.535.55 1.526.811 2.996.811 1.5 0 2.514-.287 3.05-.863.533-.576.8-1.386.8-2.431v-5.33ZM233.048 8.397h-2.14v-.001c-1.791 0-3.181.209-4.198.63-1.016.418-1.765.94-2.273 1.517-.508.602-.83 1.177-.937 1.778-.133.603-.186 1.074-.186 1.386v17.584c.003.16.134.287.293.287h3.207a.294.294 0 0 0 .297-.287V14.468a3.44 3.44 0 0 1 .107-.863c.079-.289.24-.575.508-.864.268-.288.668-.523 1.15-.731.508-.21 1.15-.315 1.952-.315h1.497c.108 0 .242-.078.268-.21l.722-2.722a.284.284 0 0 0-.267-.365Zm-12.943 17.556v.785c0 .34-.051.81-.185 1.413-.108.575-.429 1.177-.937 1.751-.508.577-1.257 1.1-2.273 1.518-1.016.42-2.407.63-4.198.63-1.79 0-3.181-.21-4.197-.63-1.016-.418-1.765-.914-2.273-1.516-.508-.575-.83-1.177-.937-1.777l-.009-.053c-.101-.578-.176-1.005-.176-1.335V9.13c0-.157.134-.29.294-.29h3.181c.162 0 .295.133.295.29v16.483c0 .549.08.942.161 1.256.081.315.242.627.482.89.24.286.615.522 1.122.705.482.184 1.151.29 1.979.29.858 0 1.551-.106 2.06-.29.508-.183.883-.419 1.15-.68.265-.261.454-.549.533-.864l.037-.138c.074-.265.152-.55.152-1.197V9.106c0-.156.132-.287.293-.287h3.181c.159 0 .293.13.293.29v16.847h-.026l-.002-.002ZM60.877 23.819h9.318l-4.922-7.921-9.037 14.318-4.118.004 11-17.196c.467-.699 1.272-1.12 2.15-1.12.864 0 1.658.409 2.127 1.09L78.433 30.22l-4.12-.004-1.933-3.2h-9.443l-2.06-3.197Zm42.752 3.2V12.085h-3.495V28.48c0 .454.185.888.509 1.212.343.337.795.526 1.281.526h15.924l2.055-3.197h-16.274Zm-57.774-2.673a6.136 6.136 0 0 0 6.139-6.131 6.136 6.136 0 0 0-6.14-6.131H30.573v18.133h3.49V15.28h11.552a2.936 2.936 0 1 1 0 5.871l-9.841-.003 10.422 9.069h5.074l-7.013-5.874 1.599.003ZM9.08 30.217c-5.013 0-9.08-4.056-9.08-9.065 0-5.008 4.067-9.068 9.08-9.068h10.556c5.014 0 9.08 4.06 9.08 9.068 0 5.01-4.066 9.069-9.08 9.069L9.08 30.217Zm10.321-3.196a5.872 5.872 0 0 0 5.879-5.87c0-3.243-2.63-5.87-5.879-5.87L9.315 15.28a5.875 5.875 0 0 0-5.88 5.871 5.874 5.874 0 0 0 5.88 5.87h10.086Zm66.317 3.195c-5.012 0-9.081-4.056-9.081-9.065 0-5.008 4.069-9.067 9.081-9.067h12.544l-2.055 3.197-10.253-.001a5.876 5.876 0 0 0-5.882 5.871 5.875 5.875 0 0 0 5.882 5.87h12.59l-2.05 3.195H85.718Zm42.719-3.195a5.875 5.875 0 0 1-5.654-4.266h14.927l2.056-3.196-16.987-.002a5.878 5.878 0 0 1 5.658-4.277h10.246l2.058-3.196h-12.543c-5.012 0-9.08 4.059-9.08 9.067 0 5.009 4.068 9.066 9.08 9.066h10.775l2.053-3.196h-12.589Z"
    fill="#fff" />
  <path stroke="#fff" stroke-width="2" d="M160.34 14.652v12.82m-6.494-6.494h12.82" />
</svg>