<svg width="270" height="100" viewBox="0 0 270 100" fill="none" xmlns="http://www.w3.org/2000/svg">
  <path
    d="M215.608 4.12844H187.971V48.1651H215.608V41.7431H195.341V28.8991H213.765V22.4771H195.341V10.5505H215.608V4.12844Z"
    fill="#363C41" />
  <path
    d="M178.759 4.12844V48.1651H171.389L150.2 16.9725V48.1651H142.83V4.12844H150.2L171.389 34.4037V4.12844H178.759Z"
    fill="#363C41" />
  <path
    d="M7.47952 70.8806L0.5 70.5708L1.96217 61.7505C3.15074 54.5807 3.76725 52.7969 5.25678 52.2176C7.51664 51.3389 47.4575 51.1565 58.9973 51.9722L67.43 52.5683V59.2759C67.43 67.2653 66.0781 69.0744 58.9743 70.5916C54.8205 71.4788 24.7569 71.6475 7.47952 70.8806ZM106.582 46.8899C98.9474 43.3807 95.746 37.2596 95.7254 26.1315C95.6982 11.3831 102.596 3.63368 115.702 3.68987C128.074 3.7429 134.979 11.7872 134.979 26.1468C134.979 37.2041 131.74 43.3718 124.086 46.8899C119.286 49.0958 111.382 49.0958 106.582 46.8899ZM122.231 40.2129C125.772 37.4391 127.31 33.1788 127.31 26.1468C127.31 15.4267 123.331 10.0917 115.334 10.0917C107.162 10.0917 103.358 15.1912 103.358 26.1468C103.358 33.8157 104.598 37.2054 108.531 40.286C111.926 42.9461 118.788 42.9095 122.231 40.2129ZM29.9659 45.947C24.8143 45.6532 20.3133 45.1277 19.9636 44.7791C19.614 44.4305 19.6283 41.1665 19.9954 37.5256C20.5389 32.1365 21.0919 30.5098 22.9703 28.7762C25.9313 26.0434 27.1801 25.8685 50.8477 24.8735C65.547 24.2555 70.8288 24.3123 71.3311 25.0938C72.7004 27.2242 72.0245 38.0101 70.2823 41.8304C68.5996 45.5203 68.4657 45.5982 62.7975 46.1882C56.4173 46.8524 44.275 46.7631 29.9659 45.947ZM37.879 18.2156C36.8858 16.3674 37.2 9.49665 38.5967 2.52294L39.1021 0H53.5424C63.5454 0 68.3224 0.338291 69.0882 1.10091C69.7869 1.79672 70.1937 5.29012 70.1937 10.5945V18.9872L60.3774 19.5853C42.6122 20.6678 39.0813 20.4529 37.879 18.2156Z"
    fill="#363C41" />
  <path
    d="M108.653 91.422C106.319 91.422 104.246 90.9021 102.434 89.8624C100.623 88.792 99.2101 87.3242 98.1968 85.4587C97.1834 83.5627 96.6767 81.4526 96.6767 79.1284C96.6767 76.8043 97.1834 74.7095 98.1968 72.844C99.2101 70.948 100.623 69.4801 102.434 68.4404C104.246 67.37 106.319 66.8349 108.653 66.8349C111.539 66.8349 113.981 67.6453 115.977 69.2661C117.973 70.8563 119.17 72.9969 119.569 75.6881H113.858C113.52 74.5872 112.89 73.7462 111.969 73.1651C111.079 72.5535 109.973 72.2477 108.653 72.2477C106.872 72.2477 105.413 72.8593 104.277 74.0826C103.141 75.2752 102.573 76.9572 102.573 79.1284C102.573 81.2997 103.141 82.9969 104.277 84.2202C105.444 85.4128 106.902 86.0092 108.653 86.0092C110.004 86.0092 111.125 85.7187 112.015 85.1376C112.906 84.5566 113.52 83.7003 113.858 82.5688H119.569C119.17 85.2599 117.973 87.4159 115.977 89.0367C113.981 90.6269 111.539 91.422 108.653 91.422Z"
    fill="#23D1AE" />
  <path
    d="M125.136 90.8257V67.4312H130.848V70.4128H131.677C132.598 68.211 134.41 67.1101 137.112 67.1101H140.29V72.6147H136.697C134.732 72.6147 133.274 73.1957 132.322 74.3578C131.37 75.4893 130.894 77.1407 130.894 79.3119V90.8257H125.136Z"
    fill="#23D1AE" />
  <path
    d="M147.557 100L153.039 88.3486L143.366 67.4312H149.768L154.513 78.3945C154.973 79.4037 155.418 80.5657 155.848 81.8807H156.631C156.938 80.7187 157.353 79.5566 157.875 78.3945L162.481 67.4312H168.792L153.96 100H147.557Z"
    fill="#23D1AE" />
  <path
    d="M173.735 100V67.4312H179.446V70.4587H180.275C181.012 69.2355 182.01 68.3333 183.269 67.7523C184.528 67.1407 185.895 66.8349 187.369 66.8349C189.242 66.8349 190.977 67.3089 192.574 68.2569C194.201 69.2049 195.491 70.5963 196.443 72.4312C197.426 74.2355 197.917 76.4067 197.917 78.945C197.917 81.6361 197.395 83.9297 196.351 85.8257C195.338 87.6911 193.986 89.0979 192.297 90.0459C190.639 90.9633 188.874 91.422 187 91.422C185.588 91.422 184.206 91.1468 182.855 90.5963C181.534 90.0459 180.414 89.2202 179.492 88.1193V100H173.735ZM185.757 86.0092C187.507 86.0092 188.996 85.4281 190.225 84.2661C191.453 83.104 192.067 81.3914 192.067 79.1284C192.067 76.8654 191.453 75.1529 190.225 73.9908C188.996 72.8287 187.507 72.2477 185.757 72.2477C184.006 72.2477 182.517 72.8287 181.289 73.9908C180.091 75.1529 179.492 76.8654 179.492 79.1284C179.492 81.3914 180.091 83.104 181.289 84.2661C182.517 85.4281 184.006 86.0092 185.757 86.0092Z"
    fill="#23D1AE" />
  <path
    d="M214.341 90.8257C211.823 90.8257 209.858 90.1835 208.445 88.8991C207.063 87.5841 206.372 85.5658 206.372 82.844V72.7064H201.536V67.4312H206.372V61.1468H212.13V67.4312H219.454V72.7064H212.13V82.1101C212.13 83.211 212.391 84.0367 212.913 84.5872C213.466 85.1376 214.356 85.4128 215.585 85.4128H219.5V90.8257H214.341Z"
    fill="#23D1AE" />
  <path
    d="M246.922 80.6422H229.419C229.695 82.5076 230.386 83.9144 231.492 84.8624C232.597 85.7798 233.964 86.2385 235.591 86.2385C236.973 86.2385 238.094 85.9633 238.954 85.4128C239.844 84.8624 240.428 84.1284 240.704 83.211H246.462C245.878 85.6881 244.635 87.6758 242.731 89.1743C240.827 90.6728 238.447 91.422 235.591 91.422C233.227 91.422 231.138 90.9021 229.327 89.8624C227.546 88.792 226.148 87.3242 225.135 85.4587C224.152 83.5933 223.661 81.4985 223.661 79.1743C223.661 76.8502 224.152 74.7553 225.135 72.8899C226.118 70.9939 227.515 69.5107 229.327 68.4404C231.138 67.37 233.227 66.8349 235.591 66.8349C237.771 66.8349 239.721 67.3089 241.441 68.2569C243.161 69.2049 244.496 70.5199 245.448 72.2018C246.431 73.8838 246.922 75.7798 246.922 77.8899V80.6422ZM241.303 76.5596C241.211 75.1835 240.658 74.0367 239.645 73.1193C238.631 72.1712 237.295 71.6972 235.637 71.6972C234.132 71.6972 232.843 72.1101 231.768 72.9358C230.693 73.7615 229.972 74.9694 229.603 76.5596H241.303Z"
    fill="#23D1AE" />
  <path
    d="M252.705 90.8257V67.4312H258.417V70.4128H259.246C260.167 68.211 261.979 67.1101 264.681 67.1101H267.859V72.6147H264.267C262.301 72.6147 260.843 73.1957 259.891 74.3578C258.939 75.4893 258.463 77.1407 258.463 79.3119V90.8257H252.705Z"
    fill="#23D1AE" />
  <path
    d="M230.711 10.056L230.711 10.056C236.247 9.4724 241.285 6.43392 244.05 4.39068C245.152 3.57682 246.457 3.16974 247.76 3.16974C249.064 3.16974 250.366 3.57694 251.468 4.39068C254.229 6.43047 259.254 9.46238 264.779 10.0533H264.781L264.807 10.056C267.16 10.3049 268.985 12.3807 268.891 14.7953V14.7981L268.891 14.8086C267.948 37.1182 253.872 45.7564 249.695 47.7672L249.694 47.7673C248.476 48.3528 247.042 48.3528 245.824 47.7673L245.823 47.7672C241.646 45.7564 227.57 37.1182 226.627 14.8087L230.711 10.056ZM230.711 10.056C228.354 10.3051 226.525 12.3883 226.627 14.8086L230.711 10.056ZM264.344 14.5104L264.358 14.5119C264.414 14.52 264.433 14.5395 264.437 14.5444C264.441 14.5491 264.456 14.5676 264.454 14.6197C263.592 35.0028 251.113 42.1211 247.785 43.7233C247.772 43.7297 247.763 43.7325 247.759 43.7337C247.755 43.7325 247.746 43.7296 247.733 43.7231C244.404 42.1206 231.925 35.0016 231.064 14.617L231.064 14.6169C231.062 14.5649 231.077 14.5476 231.08 14.544C231.083 14.5402 231.102 14.5203 231.16 14.5119L231.174 14.5104C237.955 13.7955 243.583 10.2859 246.673 8.00274C247.01 7.75374 247.389 7.63414 247.76 7.63414C248.131 7.63414 248.507 7.75344 248.845 8.00274C251.935 10.2859 257.563 13.7955 264.344 14.5104Z"
    fill="#23D1AE" stroke="#23D1AE" />
</svg>
  