<svg width="33" height="25" viewBox="0 0 33 25" fill="none" xmlns="http://www.w3.org/2000/svg">
  <path
    d="M12.4676 0L11.5848 0.105932C11.5848 0.105932 7.62561 0.538489 4.73455 2.86017H4.69923L4.66392 2.89548C4.01509 3.49135 3.7326 4.22405 3.28681 5.29661C2.84101 6.36917 2.36431 7.73746 1.945 9.25141C1.10637 12.2837 0.426636 15.956 0.426636 19.315V19.5975L0.567879 19.8799C1.61396 21.7161 3.47219 22.8858 5.19358 23.6935C6.91498 24.5012 8.40245 24.9294 9.43087 24.9647L10.1018 25L10.4549 24.3997L11.6908 22.2105C13.0017 22.5062 14.5112 22.7048 16.2458 22.7048C17.9805 22.7048 19.49 22.5062 20.8009 22.2105L22.0368 24.3997L22.3899 25L23.0608 24.9647C24.0892 24.9294 25.5767 24.5012 27.2981 23.6935C29.0195 22.8858 30.8777 21.7161 31.9238 19.8799L32.0651 19.5975V19.315C32.0651 15.956 31.3853 12.2837 30.5467 9.25141C30.1274 7.73746 29.6507 6.36917 29.2049 5.29661C28.7591 4.22405 28.4766 3.49135 27.8278 2.89548L27.7925 2.86017H27.7571C24.8661 0.538489 20.9069 0.105932 20.9069 0.105932L20.0241 0L19.7063 0.812147C19.7063 0.812147 19.3797 1.63754 19.1766 2.57768C17.8966 2.40554 16.8505 2.36582 16.2458 2.36582C15.6411 2.36582 14.5951 2.40554 13.3151 2.57768C13.112 1.63754 12.7854 0.812147 12.7854 0.812147L12.4676 0ZM10.9139 2.57768C10.9625 2.73658 11.011 2.87341 11.0552 3.00141C9.59418 3.36335 8.0361 3.91508 6.60601 4.80226L7.80658 6.70904C10.7374 4.89054 14.9482 4.62571 16.2458 4.62571C17.5435 4.62571 21.7543 4.89054 24.6851 6.70904L25.8857 4.80226C24.4556 3.91508 22.8975 3.36335 21.4365 3.00141C21.4807 2.87341 21.5292 2.73658 21.5778 2.57768C22.6327 2.78955 24.6454 3.27507 26.3094 4.5904C26.3006 4.59481 26.7331 5.24806 27.1216 6.17938C27.5188 7.13718 27.9602 8.41278 28.3574 9.85169C29.121 12.6103 29.7213 15.9693 29.7699 18.9266C29.0592 20.0124 27.7395 20.9922 26.3447 21.6455C25.1265 22.2149 24.1643 22.4223 23.5905 22.5282L23.0255 21.5749C23.361 21.4513 23.692 21.3144 23.9789 21.1864C25.7179 20.4228 26.6625 19.5975 26.6625 19.5975L25.1795 17.9025C25.1795 17.9025 24.5439 18.4852 23.0608 19.1384C21.5778 19.7917 19.3135 20.4449 16.2458 20.4449C13.1782 20.4449 10.9139 19.7917 9.43087 19.1384C7.94782 18.4852 7.31223 17.9025 7.31223 17.9025L5.82918 19.5975C5.82918 19.5975 6.77374 20.4228 8.51279 21.1864C8.79969 21.3144 9.13073 21.4513 9.46618 21.5749L8.90121 22.5282C8.32741 22.4223 7.36519 22.2149 6.14697 21.6455C4.7522 20.9922 3.43246 20.0124 2.72183 18.9266C2.77039 15.9693 3.37067 12.6103 4.13426 9.85169C4.53151 8.41278 4.97289 7.13718 5.37014 6.17938C5.75856 5.24806 6.19111 4.59481 6.18229 4.5904C7.8463 3.27507 9.85902 2.78955 10.9139 2.57768ZM12.291 10.2754C11.4171 10.2754 10.6447 10.7742 10.1724 11.4054C9.70012 12.0365 9.46618 12.8134 9.46618 13.6653C9.46618 14.5171 9.70012 15.294 10.1724 15.9251C10.6447 16.5563 11.4171 17.0551 12.291 17.0551C13.165 17.0551 13.9374 16.5563 14.4097 15.9251C14.882 15.294 15.1159 14.5171 15.1159 13.6653C15.1159 12.8134 14.882 12.0365 14.4097 11.4054C13.9374 10.7742 13.165 10.2754 12.291 10.2754ZM20.2006 10.2754C19.3267 10.2754 18.5543 10.7742 18.082 11.4054C17.6097 12.0365 17.3758 12.8134 17.3758 13.6653C17.3758 14.5171 17.6097 15.294 18.082 15.9251C18.5543 16.5563 19.3267 17.0551 20.2006 17.0551C21.0746 17.0551 21.847 16.5563 22.3193 15.9251C22.7916 15.294 23.0255 14.5171 23.0255 13.6653C23.0255 12.8134 22.7916 12.0365 22.3193 11.4054C21.847 10.7742 21.0746 10.2754 20.2006 10.2754ZM12.291 12.5353C12.3528 12.5353 12.4323 12.5574 12.5735 12.7472C12.7148 12.937 12.856 13.268 12.856 13.6653C12.856 14.0625 12.7148 14.3935 12.5735 14.5833C12.4323 14.7731 12.3528 14.7952 12.291 14.7952C12.2292 14.7952 12.1498 14.7731 12.0086 14.5833C11.8673 14.3935 11.7261 14.0625 11.7261 13.6653C11.7261 13.268 11.8673 12.937 12.0086 12.7472C12.1498 12.5574 12.2292 12.5353 12.291 12.5353ZM20.2006 12.5353C20.2624 12.5353 20.3419 12.5574 20.4831 12.7472C20.6244 12.937 20.7656 13.268 20.7656 13.6653C20.7656 14.0625 20.6244 14.3935 20.4831 14.5833C20.3419 14.7731 20.2624 14.7952 20.2006 14.7952C20.1389 14.7952 20.0594 14.7731 19.9182 14.5833C19.7769 14.3935 19.6357 14.0625 19.6357 13.6653C19.6357 13.268 19.7769 12.937 19.9182 12.7472C20.0594 12.5574 20.1389 12.5353 20.2006 12.5353Z"
    fill="#9DA2A4" />
</svg>