<svg width="26" height="25" viewBox="0 0 26 25" fill="none" xmlns="http://www.w3.org/2000/svg">
  <path fill-rule="evenodd" clip-rule="evenodd"
    d="M12.8158 0C5.73622 0 0 5.73622 0 12.8158C0 18.4769 3.67118 23.2828 8.76495 24.9766C9.4074 25.0934 9.64102 24.7012 9.64102 24.3591C9.64102 24.0546 9.62851 23.2494 9.62434 22.1814C6.05745 22.9532 5.30653 20.4627 5.30653 20.4627C4.72247 18.9817 3.88394 18.5854 3.88394 18.5854C2.72001 17.7927 3.97155 17.8094 3.97155 17.8094C5.25646 17.9012 5.9323 19.1277 5.9323 19.1277C7.07537 21.0884 8.93182 20.5211 9.66188 20.1957C9.77869 19.3655 10.1124 18.8023 10.4754 18.4811C7.63022 18.1598 4.63904 17.0585 4.63904 12.1483C4.63904 10.7466 5.13965 9.60348 5.95733 8.70654C5.828 8.38531 5.38579 7.07954 6.08248 5.31487C6.08248 5.31487 7.1588 4.97278 9.60765 6.62899C10.6297 6.3453 11.7269 6.20346 12.8158 6.19929C13.9046 6.20346 15.0018 6.3453 16.0239 6.62899C18.4727 4.97278 19.5449 5.31487 19.5449 5.31487C20.2457 7.07954 19.8077 8.38531 19.6742 8.70654C20.496 9.60348 20.9883 10.7466 20.9883 12.1483C20.9883 17.071 17.993 18.1515 15.1395 18.4727C15.5984 18.8649 16.0072 19.6492 16.0072 20.8423C16.0072 22.5569 15.9947 23.9378 15.9947 24.3591C15.9947 24.7012 16.2241 25.1017 16.8749 24.9766C21.9645 23.2786 25.6315 18.4769 25.6315 12.8158C25.6315 5.73622 19.8953 0 12.8158 0Z"
    fill="#9DA2A4" />
</svg>
  