<svg width="26" height="25" viewBox="0 0 26 25" fill="none" xmlns="http://www.w3.org/2000/svg">
  <path
    d="M7.6299 0C3.59493 0 0.279053 3.31144 0.279053 7.35085V17.6491C0.279053 21.6841 3.59049 25 7.6299 25H17.9282C21.9632 25 25.2791 21.6886 25.2791 17.6491V7.35085C25.2791 3.31587 21.9676 0 17.9282 0H7.6299ZM7.6299 2.27273H17.9282C20.738 2.27273 23.0063 4.54102 23.0063 7.35085V17.6491C23.0063 20.459 20.738 22.7273 17.9282 22.7273H7.6299C4.82007 22.7273 2.55178 20.459 2.55178 17.6491V7.35085C2.55178 4.54102 4.82007 2.27273 7.6299 2.27273ZM19.4907 4.75852C18.9181 4.75852 18.4609 5.21573 18.4609 5.78835C18.4609 6.36097 18.9181 6.81818 19.4907 6.81818C20.0633 6.81818 20.5205 6.36097 20.5205 5.78835C20.5205 5.21573 20.0633 4.75852 19.4907 4.75852ZM12.7791 5.68182C9.02817 5.68182 5.96087 8.74911 5.96087 12.5C5.96087 16.2509 9.02817 19.3182 12.7791 19.3182C16.5299 19.3182 19.5972 16.2509 19.5972 12.5C19.5972 8.74911 16.5299 5.68182 12.7791 5.68182ZM12.7791 7.95455C15.3048 7.95455 17.3245 9.97425 17.3245 12.5C17.3245 15.0257 15.3048 17.0455 12.7791 17.0455C10.2533 17.0455 8.2336 15.0257 8.2336 12.5C8.2336 9.97425 10.2533 7.95455 12.7791 7.95455Z"
    fill="#9DA2A4" />
</svg>
  