<svg width="26" height="25" viewBox="0 0 26 25" fill="none" xmlns="http://www.w3.org/2000/svg">
  <path
    d="M3.29623 0C1.74261 0 0.455322 1.28729 0.455322 2.84091V22.1591C0.455322 23.7127 1.74261 25 3.29623 25H22.6144C24.168 25 25.4553 23.7127 25.4553 22.1591V2.84091C25.4553 1.28729 24.168 0 22.6144 0H3.29623ZM3.29623 2.27273H22.6144C22.9385 2.27273 23.1826 2.51687 23.1826 2.84091V22.1591C23.1826 22.4831 22.9385 22.7273 22.6144 22.7273H3.29623C2.97219 22.7273 2.72805 22.4831 2.72805 22.1591V2.84091C2.72805 2.51687 2.97219 2.27273 3.29623 2.27273ZM6.6343 4.22585C5.55564 4.22585 4.68117 5.10032 4.68117 6.17898C4.68117 7.25764 5.55564 8.1321 6.6343 8.1321C7.71296 8.1321 8.58742 7.25764 8.58742 6.17898C8.58742 5.10032 7.71296 4.22585 6.6343 4.22585ZM16.8971 9.41051C15.268 9.41051 14.1849 10.3027 13.7366 11.1506H13.6655V9.65909H10.4695V20.4545H13.8076V15.1278C13.8076 13.7207 14.0872 12.358 15.8317 12.358C17.5496 12.358 17.5718 13.9471 17.5718 15.1989V20.4545H20.9099V14.5241C20.9099 11.6211 20.2929 9.41051 16.8971 9.41051ZM5.00078 9.65909V20.4545H8.37436V9.65909H5.00078Z"
    fill="#9DA2A4" />
</svg>
  