<svg xmlns="http://www.w3.org/2000/svg" viewBox="0 0 32 32">
  <path d="M29.554688 8.503906C29.496094 8.429688 29.441406 8.359375 29.378906 8.292969C29.328125 8.242188 29.28125 8.191406 29.226563 8.148438C29.09375 8.035156 28.953125 7.929688 28.789063 7.851563L21.546875 4.285156C21.363281 4.195313 21.164063 4.125 20.960938 4.078125C20.75 4.027344 20.53125 4 20.3125 4C19.34375 4 18.421875 4.503906 17.914063 5.316406L16.910156 6.925781L14.601563 10.617188L13.714844 8.660156C13.496094 8.316406 13.203125 8.054688 12.855469 7.882813C12.855469 7.882813 5.988281 4.503906 5.988281 4.503906L5.769531 4.394531C5.367188 4.195313 4.949219 4.097656 4.527344 4.097656C3.085938 4.097656 2 5.226563 2 6.726563L2 21.761719C2 22.925781 2.730469 24.097656 3.78125 24.613281L10.007813 27.679688C10.441406 27.890625 10.890625 28 11.34375 28C12.855469 28 14 26.800781 14 25.210938L14 21.765625L18 23.734375L25.417969 27.386719L25.785156 27.570313C26.285156 27.816406 26.796875 27.941406 27.296875 27.941406C28.839844 27.941406 30 26.765625 30 25.210938L30 9.796875C30 9.3125 29.828125 8.871094 29.554688 8.503906 Z M 12 18.554688L12 25.210938C12 25.703125 11.730469 26 11.34375 26C11.203125 26 11.054688 25.964844 10.894531 25.882813L4.664063 22.816406C4.300781 22.636719 4 22.160156 4 21.761719L4 6.726563C4 6.332031 4.21875 6.097656 4.527344 6.097656C4.636719 6.097656 4.757813 6.125 4.886719 6.1875L5.105469 6.296875C5.105469 6.296875 5.105469 6.296875 5.109375 6.296875L11.972656 9.675781C11.984375 9.683594 11.992188 9.691406 12 9.703125 Z M 14.882813 19.972656L14 19.535156L14 14.121094L17.171875 21.097656 Z M 15.59375 12.800781L18.652344 7.90625L19.609375 6.375C19.761719 6.136719 20.035156 6 20.3125 6C20.335938 6 20.355469 6.011719 20.378906 6.015625C20.476563 6.023438 20.574219 6.035156 20.664063 6.078125L27.90625 9.644531C27.9375 9.660156 27.9375 9.695313 27.953125 9.726563C27.953125 9.742188 27.957031 9.757813 27.949219 9.773438L21.949219 19.371094L20 22.492188 Z M 28 25.210938C28 25.675781 27.714844 25.941406 27.296875 25.941406C27.109375 25.941406 26.898438 25.886719 26.671875 25.773438L24.78125 24.84375L21.804688 23.378906L22.359375 22.492188L28 13.464844Z" fill="#1DA189" />
</svg>