<svg width="33" height="25" viewBox="0 0 33 25" fill="none" xmlns="http://www.w3.org/2000/svg">
  <path
    d="M16.3529 0C11.6459 0 7.48572 0.488281 4.94666 0.859375C2.84705 1.16699 1.15271 2.74902 0.766968 4.84375C0.439819 6.62598 0.102905 9.2334 0.102905 12.5C0.102905 15.7666 0.439819 18.374 0.766968 20.1562C1.15271 22.251 2.84705 23.8379 4.94666 24.1406C7.49548 24.5117 11.6703 25 16.3529 25C21.0355 25 25.2103 24.5117 27.7592 24.1406C29.8588 23.8379 31.5531 22.251 31.9388 20.1562C32.266 18.3691 32.6029 15.7568 32.6029 12.5C32.6029 9.24316 32.2709 6.63086 31.9388 4.84375C31.5531 2.74902 29.8588 1.16699 27.7592 0.859375C25.2201 0.488281 21.0599 0 16.3529 0ZM16.3529 2.5C20.8939 2.5 24.9515 2.96387 27.4076 3.32031C28.4623 3.47656 29.2875 4.27246 29.4779 5.3125C29.7806 6.96289 30.1029 9.40918 30.1029 12.5C30.1029 15.5859 29.7806 18.0371 29.4779 19.6875C29.2875 20.7275 28.4672 21.5283 27.4076 21.6797C24.9418 22.0361 20.8646 22.5 16.3529 22.5C11.8412 22.5 7.75916 22.0361 5.29822 21.6797C4.24353 21.5283 3.41834 20.7275 3.22791 19.6875C2.92517 18.0371 2.60291 15.5957 2.60291 12.5C2.60291 9.39941 2.92517 6.96289 3.22791 5.3125C3.41834 4.27246 4.23865 3.47656 5.29822 3.32031C7.74939 2.96387 11.8119 2.5 16.3529 2.5ZM12.6029 5.35156V19.6484L14.4779 18.5938L23.2279 13.5938L25.1029 12.5L23.2279 11.4062L14.4779 6.40625L12.6029 5.35156ZM15.1029 9.64844L20.0638 12.5L15.1029 15.3516V9.64844Z"
    fill="#9DA2A4" />
</svg>