<svg xmlns="http://www.w3.org/2000/svg" viewBox="0 0 32 32">
  <path d="M28.28125 2.28125L18.28125 12.28125L17 11L17 10.96875L16.96875 10.9375C16.328125 10.367188 15.492188 10.09375 14.6875 10.09375C13.882813 10.09375 13.105469 10.394531 12.5 11L12.34375 11.125L11.84375 11.625L11.5 11.90625L2.375 19L1.5 19.71875L12.28125 30.5L13 29.625L20.0625 20.5625L20.09375 20.59375L21.09375 19.59375L21.125 19.59375L21.15625 19.5625C22.296875 18.277344 22.304688 16.304688 21.09375 15.09375L19.71875 13.71875L29.71875 3.71875 Z M 14.6875 12.09375C14.996094 12.085938 15.335938 12.191406 15.59375 12.40625C15.605469 12.414063 15.613281 12.429688 15.625 12.4375L19.6875 16.5C20.0625 16.875 20.097656 17.671875 19.6875 18.1875C19.671875 18.207031 19.671875 18.230469 19.65625 18.25L19.34375 18.53125L13.5625 12.75L13.90625 12.40625C14.097656 12.214844 14.378906 12.101563 14.6875 12.09375 Z M 12.03125 14.03125L17.96875 19.96875L12.09375 27.46875L10.65625 26.03125L12.8125 23.78125L11.375 22.40625L9.25 24.625L7.9375 23.3125L11.8125 19.40625L10.40625 18L6.5 21.875L4.53125 19.90625Z" fill="#1D1D1B" />
</svg>