<svg width="23" height="24" viewBox="0 0 23 24" fill="none" xmlns="http://www.w3.org/2000/svg">
  <path
    d="M11.3856 1.29309C7.41637 1.29309 4.17904 3.88295 4.17904 7.05834V9.52916H1.09052V22.7069H21.6807V9.52916H18.5922V7.05834C18.5922 3.88295 15.3548 1.29309 11.3856 1.29309ZM11.3856 2.94031C14.2409 2.94031 16.5332 4.77412 16.5332 7.05834V9.52916H6.23806V7.05834C6.23806 4.77412 8.53033 2.94031 11.3856 2.94031ZM3.14953 11.1764H19.6217V21.0597H3.14953V11.1764ZM7.26757 15.2944C6.70054 15.2944 6.23806 15.6644 6.23806 16.118C6.23806 16.5717 6.70054 16.9416 7.26757 16.9416C7.83461 16.9416 8.29708 16.5717 8.29708 16.118C8.29708 15.6644 7.83461 15.2944 7.26757 15.2944ZM11.3856 15.2944C10.8186 15.2944 10.3561 15.6644 10.3561 16.118C10.3561 16.5717 10.8186 16.9416 11.3856 16.9416C11.9526 16.9416 12.4151 16.5717 12.4151 16.118C12.4151 15.6644 11.9526 15.2944 11.3856 15.2944ZM15.5036 15.2944C14.9366 15.2944 14.4741 15.6644 14.4741 16.118C14.4741 16.5717 14.9366 16.9416 15.5036 16.9416C16.0707 16.9416 16.5332 16.5717 16.5332 16.118C16.5332 15.6644 16.0707 15.2944 15.5036 15.2944Z"
    fill="white" stroke="white" />
</svg>