<svg width="21" height="26" viewBox="0 0 21 26" fill="none" xmlns="http://www.w3.org/2000/svg">
  <path
    d="M10.069 1.36206C8.98467 1.36206 8.21352 2.12984 7.833 3.0862H1.4483V22.9138H8.34485V24.6379H20.4138V10.8448H18.6897V3.0862H12.305C11.9245 2.12984 11.1533 1.36206 10.069 1.36206ZM10.069 3.0862C10.5472 3.0862 10.9311 3.47009 10.9311 3.94827V4.81034H13.5173V6.53447H6.62072V4.81034H9.20692V3.94827C9.20692 3.47009 9.59081 3.0862 10.069 3.0862ZM3.17244 4.81034H4.89658V8.25861H15.2414V4.81034H16.9655V10.8448H8.34485V21.1896H3.17244V4.81034ZM10.069 12.569H18.6897V22.9138H10.069V12.569Z"
    fill="#1D1D1B" stroke="#1D1D1B" />
</svg>