<svg width="30" height="30" viewBox="0 0 30 30" fill="none" xmlns="http://www.w3.org/2000/svg">
  <path
    d="M11.8617 1L11.6893 1.87281L11.0341 5.06194C9.98243 5.46477 9.03419 6.03126 8.17215 6.70685L4.96537 5.63262L4.10333 5.36406L3.65507 6.13617L1.44826 9.82883L1 10.6009L1.65515 11.1716L4.13781 13.2865C4.0473 13.8362 3.93093 14.3859 3.93093 14.965C3.93093 15.5441 4.0473 16.0938 4.13781 16.6435L1.65515 18.7584L1 19.3291L1.44826 20.1012L3.65507 23.7938L4.10333 24.5659L4.96537 24.2974L8.17215 23.2231C9.03419 23.8987 9.98243 24.4652 11.0341 24.8681L11.6893 28.0572L11.8617 28.93H18.0683L18.2407 28.0572L18.8959 24.8681C19.9476 24.4652 20.8958 23.8987 21.7579 23.2231L24.9646 24.2974L25.8267 24.5659L26.2749 23.7938L28.4817 20.1012L28.93 19.3291L28.2749 18.7584L25.7922 16.6435C25.8827 16.0938 25.9991 15.5441 25.9991 14.965C25.9991 14.3859 25.8827 13.8362 25.7922 13.2865L28.2749 11.1716L28.93 10.6009L28.4817 9.82883L26.2749 6.13617L25.8267 5.36406L24.9646 5.63262L21.7579 6.70685C20.8958 6.03126 19.9476 5.46477 18.8959 5.06194L18.2407 1.87281L18.0683 1H11.8617ZM13.6547 3.14846H16.2753L16.827 5.93475L16.9649 6.57257L17.5856 6.77399C18.8399 7.15585 19.9777 7.80206 20.9303 8.65389L21.413 9.0903L22.0337 8.88888L24.8267 7.94893L26.137 10.131L23.9302 12.0444L23.413 12.4473L23.5854 13.0851C23.7276 13.6977 23.7923 14.323 23.7923 14.965C23.7923 15.607 23.7276 16.2323 23.5854 16.8449L23.4474 17.4827L23.9302 17.8856L26.137 19.799L24.8267 21.9811L22.0337 21.0411L21.413 20.8397L20.9303 21.2761C19.9777 22.1279 18.8399 22.7742 17.5856 23.156L16.9649 23.3574L16.827 23.9953L16.2753 26.7815H13.6547L13.103 23.9953L12.9651 23.3574L12.3444 23.156C11.0901 22.7742 9.95225 22.1279 8.9997 21.2761L8.51696 20.8397L7.8963 21.0411L5.1033 21.9811L3.793 19.799L5.99981 17.8856L6.51704 17.4827L6.34463 16.8449C6.20239 16.2323 6.13774 15.607 6.13774 14.965C6.13774 14.323 6.20239 13.6977 6.34463 13.0851L6.51704 12.4473L5.99981 12.0444L3.793 10.131L5.1033 7.94893L7.8963 8.88888L8.51696 9.0903L8.9997 8.65389C9.95225 7.80206 11.0901 7.15585 12.3444 6.77399L12.9651 6.57257L13.103 5.93475L13.6547 3.14846ZM14.965 9.59385C11.9306 9.59385 9.44796 12.0109 9.44796 14.965C9.44796 17.9191 11.9306 20.3362 14.965 20.3362C17.9994 20.3362 20.482 17.9191 20.482 14.965C20.482 12.0109 17.9994 9.59385 14.965 9.59385ZM14.965 11.7423C16.8054 11.7423 18.2752 13.1732 18.2752 14.965C18.2752 16.7568 16.8054 18.1877 14.965 18.1877C13.1246 18.1877 11.6548 16.7568 11.6548 14.965C11.6548 13.1732 13.1246 11.7423 14.965 11.7423Z"
    fill="#1D1D1B" stroke="#1D1D1B" />
</svg>
  