<svg xmlns="http://www.w3.org/2000/svg" viewBox="0 0 32 32">
  <path
    d="M16 4C13.75 4 12.234375 4.886719 10.875 5.625C9.515625 6.363281 8.28125 7 6 7L5 7L5 8C5 15.71875 7.609375 20.742188 10.25 23.78125C12.890625 26.820313 15.625 27.9375 15.625 27.9375L16 28.0625L16.375 27.9375C16.375 27.9375 19.109375 26.84375 21.75 23.8125C24.390625 20.78125 27 15.746094 27 8L27 7L26 7C23.730469 7 22.484375 6.363281 21.125 5.625C19.765625 4.886719 18.25 4 16 4 Z M 16 6C17.75 6 18.753906 6.613281 20.15625 7.375C21.339844 8.019531 22.910156 8.636719 24.9375 8.84375C24.746094 15.609375 22.507813 19.910156 20.25 22.5C18.203125 24.847656 16.484375 25.628906 16 25.84375C15.511719 25.625 13.796875 24.824219 11.75 22.46875C9.492188 19.871094 7.253906 15.578125 7.0625 8.84375C9.097656 8.636719 10.660156 8.019531 11.84375 7.375C13.246094 6.613281 14.25 6 16 6Z"
    fill="#23D1AE" />
</svg>